# xmcd CD database file
#
# Track frame offsets:
#	150
#	18289
#	45662
#	64336
#	80331
#	98309
#	119780
#	134618
#	152666
#	168002
#	191553
#	210326
#	232554
#	250723
#	275588
#	285144
#	305284
#
# Disc length: 4398 seconds
#
# Revision: 0
# Processed by: cddbd v1.4PL0 Copyright (c) Steve Scherf et al.
# Submitted via: Feurio! 1.65.5ß - http://www.feurio.com
#
DISCID=d1112c11
DTITLE=Stoni Blues Band - The Best Of Stoni
DYEAR=1900
DGENRE=
TTITLE0=Hírek
TTITLE1=Ice Cream
TTITLE2=Téli repülõtér
TTITLE3=Sárga hold
TTITLE4=Hollywood
TTITLE5=Akaratos lány
TTITLE6=Zenebarát
TTITLE7=Fekete blues
TTITLE8=Nem iszom
TTITLE9=Úton
TTITLE10=Talisman
TTITLE11=Akkor még '67
TTITLE12=Fut a vonat
TTITLE13=Hõhullám
TTITLE14=Áfium
TTITLE15=Sûrü sötét
TTITLE16=Búcsú a XX. századtól
EXTD=
EXTT0=
EXTT1=
EXTT2=
EXTT3=
EXTT4=
EXTT5=
EXTT6=
EXTT7=
EXTT8=
EXTT9=
EXTT10=
EXTT11=
EXTT12=
EXTT13=
EXTT14=
EXTT15=
EXTT16=
PLAYORDER=
